PathFileType	4	(X/Y/Z)	Run_200 02
DataRate	CameraRate	NumFrames	NumMarkers	Units	OrigDataRate	OrigDataStartFrame	OrigNumFrames
120	120	4	41	mm	120	82	125
Frame#	Time	LASI			RASI			LPSI			RPSI			RTH1			RTH3			LTH1			LTH2			LTH3			RTB1			RTB2			RTB3			LTB1			LTB2			LTB3			RCAL			RTOE			RMT5			LCAL			LTOE			LMT5			LACR			RACR			CLAV			C7			RUA1			RUA2			RUA3			RLEL			RMEL			LUA1			LUA2			LUA3			LLEL			LMEL			RFAsuperior			RFAradius			RFAulna			LFAsuperior			LFAradius			LFAulna		
		X1	Y1	Z1	X2	Y2	Z2	X3	Y3	Z3	X4	Y4	Z4	X5	Y5	Z5	X6	Y6	Z6	X7	Y7	Z7	X8	Y8	Z8	X9	Y9	Z9	X10	Y10	Z10	X11	Y11	Z11	X12	Y12	Z12	X13	Y13	Z13	X14	Y14	Z14	X15	Y15	Z15	X16	Y16	Z16	X17	Y17	Z17	X18	Y18	Z18	X19	Y19	Z19	X20	Y20	Z20	X21	Y21	Z21	X22	Y22	Z22	X23	Y23	Z23	X24	Y24	Z24	X25	Y25	Z25	X26	Y26	Z26	X27	Y27	Z27	X28	Y28	Z28	X29	Y29	Z29	X30	Y30	Z30	X31	Y31	Z31	X32	Y32	Z32	X33	Y33	Z33	X34	Y34	Z34	X35	Y35	Z35	X36	Y36	Z36	X37	Y37	Z37	X38	Y38	Z38	X39	Y39	Z39	X40	Y40	Z40	X41	Y41	Z41	

82	  0.683333	892.715750	1056.795418	-396.344111	896.845364	1059.695137	-166.589845	739.329508	1105.881898	-330.075113	732.215927	1106.189424	-233.104926	861.120997	900.496557	-105.375983	938.511130	651.289589	-154.265355	797.046122	875.783420	-453.625648	810.610622	758.583928	-428.470076	701.911904	674.040277	-402.004847	997.424922	426.792514	-219.865874	952.035182	373.526685	-155.878979	966.768362	308.678815	-223.297752	663.222345	445.452526	-325.751981	586.165850	397.916333	-392.947482	581.825248	295.094605	-325.821233	843.953149	148.196457	-228.633251	1053.548457	134.276633	-251.443408	1031.645619	113.267534	-159.755062	437.050985	227.338502	-319.595910	582.132348	 88.731042	-270.861809	560.679963	 67.780814	-356.487706	920.329368	1523.079483	-457.726058	816.887133	1529.469819	-89.354798	925.563797	1513.126497	-234.354307	817.319072	1572.929370	-298.396697	706.742353	1443.649855	-48.911366	651.001351	1465.557308	-94.941217	632.782810	1396.225624	-32.829832	569.864763	1354.090869	-25.785023	553.304062	1342.693935	-106.562530	882.429249	1393.608638	-530.580650	817.311880	1350.275680	-549.828166	885.009338	1307.145123	-549.544919	847.727696	1232.960566	-583.376350	781.420090	1228.433814	-523.721311	629.119822	1240.800919	-22.146259	686.113997	1139.854303	-68.675838	628.760115	1114.176451	-37.812607	949.299843	1211.714148	-505.770115	997.493767	1240.179840	-392.561961	1023.038023	1181.636689	-421.794661	
83	  0.691667	894.773087	1059.775630	-395.672607	897.952522	1061.767679	-165.963905	741.496104	1109.822971	-329.835746	733.936362	1109.608802	-232.882534	859.820959	901.829064	-105.408222	934.720761	651.747807	-154.346773	797.299351	880.500286	-454.479361	809.621470	762.153245	-429.205437	700.244119	678.745583	-402.541222	1000.387350	428.165499	-221.258671	958.205528	372.394212	-156.980394	975.714607	308.641845	-224.933437	658.760119	449.870974	-327.128791	580.647766	403.808036	-394.717669	575.249430	300.468091	-327.833261	861.639806	141.223855	-230.250146	1071.398035	140.344803	-255.213061	1051.802577	116.555107	-163.734788	431.090520	237.137227	-322.547920	569.779891	 92.513617	-272.472966	547.190445	 70.972119	-357.487152	920.963378	1526.413267	-456.339207	816.288237	1533.139309	-89.541013	925.488819	1516.139815	-233.493705	817.257278	1575.404045	-297.772854	705.518568	1448.194699	-49.582978	650.738583	1469.811503	-96.998514	631.376168	1401.312594	-33.963170	568.311212	1359.070116	-27.464698	552.602771	1347.185199	-108.402451	883.716973	1397.788956	-530.134689	818.747909	1354.675364	-549.894398	886.616879	1311.513216	-550.253823	849.264301	1237.193118	-584.105951	782.349319	1232.574822	-525.187151	627.989971	1246.002006	-22.989368	685.872117	1145.289805	-68.685220	628.366996	1119.272317	-38.355631	949.934099	1215.748759	-505.138726	996.834556	1244.016716	-391.306545	1022.756328	1185.608901	-420.401450	
84	  0.700000	896.711778	1062.278611	-395.393312	898.745388	1062.932165	-165.380911	743.385074	1112.922009	-329.597955	735.347555	1111.996257	-232.588826	858.736107	902.247348	-105.363298	931.153288	651.431533	-154.443700	797.683717	884.212625	-454.927803	809.265594	765.057071	-429.949009	699.759259	682.268166	-403.189538	1002.880109	429.212741	-222.593765	963.522397	371.363088	-158.091153	983.638779	308.694526	-226.408526	655.403455	453.246612	-328.185598	576.467357	408.783304	-396.142574	569.148023	305.311708	-329.291186	877.775648	135.319204	-231.776379	1086.947185	146.695202	-258.635964	1069.638430	120.199654	-167.342936	425.187690	246.509889	-325.215501	557.609687	 96.384262	-273.832961	533.969561	 74.522592	-358.424439	921.394855	1528.985710	-454.978740	815.802206	1535.981126	-89.616273	925.503827	1518.407662	-232.655422	817.204647	1577.155926	-297.066822	704.506687	1451.819855	-50.160498	650.623242	1473.115052	-98.787701	630.188185	1405.362097	-34.952748	567.035842	1362.920000	-28.989823	552.168002	1350.586228	-110.053939	884.638261	1401.184274	-529.675974	819.765081	1358.243274	-549.726986	887.859581	1315.121233	-551.011428	850.323320	1240.574799	-584.560470	782.856187	1235.883489	-526.331335	627.195590	1250.138088	-23.721696	686.078394	1149.714437	-68.595423	628.491701	1123.274099	-38.762918	950.211904	1218.806998	-504.481051	996.052634	1246.875196	-390.143048	1022.188389	1188.534356	-419.109677	
85	  0.708333	898.469152	1064.186869	-395.281168	899.270187	1063.286858	-164.758733	744.942353	1115.093446	-329.301896	736.448299	1113.248036	-232.195288	857.973824	901.900479	-105.176459	927.859644	650.376178	-154.603182	798.298191	886.776137	-454.834443	809.608310	767.244150	-430.586931	700.444723	684.511842	-403.950408	1004.909561	429.878481	-223.861995	967.975763	370.396101	-159.254084	990.516485	308.743146	-227.799221	653.055097	455.538713	-329.011101	573.543683	412.788686	-397.222364	563.521202	309.559252	-330.335541	891.998122	130.453694	-233.233664	1100.059249	152.776446	-261.664520	1084.882609	123.891407	-170.460739	419.456839	255.418780	-327.506734	545.607381	100.107269	-275.019356	520.871882	 78.203221	-359.317731	921.669115	1530.771850	-453.725009	815.495981	1537.951455	-89.504054	925.636466	1519.928541	-231.815280	817.210388	1578.198985	-296.308098	703.737543	1454.460582	-50.600566	650.636369	1475.416080	-100.240483	629.236988	1408.341667	-35.746723	566.048172	1365.603061	-30.327341	552.017611	1352.885387	-111.498777	885.196462	1403.716436	-529.224320	820.363238	1360.909830	-549.343814	888.739525	1317.898265	-551.814299	850.894123	1243.053478	-584.705972	783.076447	1238.336991	-527.074272	626.749628	1253.172876	-24.327153	686.737344	1152.979793	-68.428223	629.088400	1126.173531	-39.042509	950.119204	1220.848734	-503.813456	995.162975	1248.739141	-389.058044	1021.344399	1190.388108	-417.903155	
